<mxfile host="app.diagrams.net" modified="2024-02-09T07:35:33.290Z" agent="Mozilla/5.0 (Macintosh; Intel Mac OS X 10_15_7) AppleWebKit/537.36 (KHTML, like Gecko) Chrome/120.0.0.0 Safari/537.36" version="23.1.2" etag="q1B-IWTkjWNjqwYWUV7s" type="github">
  <diagram name="Page-1" id="4HpMCiqveYDnl-I1wLZ7">
    <mxGraphModel>
      <root>
        <mxCell id="0" />
        <mxCell id="1" parent="0" />
      </root>
    </mxGraphModel>
  </diagram>
</mxfile>
